<svg
  width="1.5em"
  height="1.5em"
  viewBox="0 0 40 30"
  fill="none"
  xmlns="http://www.w3.org/2000/svg"
>
  <path
    d="M35.8884 7.47654C35.9138 7.80464 35.9138 8.13283 35.9138 8.46093C35.9138 18.4687 27.6651 30 12.5889 30C7.94417 30 3.62947 28.7578 0 26.6016C0.659924 26.6719 1.29438 26.6953 1.9797 26.6953C5.81213 26.6953 9.34011 25.5 12.1574 23.461C8.55331 23.3906 5.53299 21.211 4.49236 18.2109C5.00002 18.2812 5.5076 18.3281 6.04065 18.3281C6.77667 18.3281 7.51276 18.2343 8.198 18.0703C4.44166 17.3671 1.6243 14.3203 1.6243 10.6406V10.5469C2.71564 11.1094 3.98478 11.461 5.32986 11.5078C3.12173 10.1484 1.67508 7.82809 1.67508 5.20307C1.67508 3.79685 2.0811 2.50779 2.79181 1.38278C6.82737 5.97652 12.8934 8.97647 19.6954 9.30466C19.5685 8.74215 19.4923 8.15627 19.4923 7.57032C19.4923 3.3984 23.1472 0 27.6903 0C30.0507 0 32.1827 0.91406 33.6802 2.39062C35.533 2.06252 37.3096 1.42967 38.8833 0.562504C38.2741 2.32036 36.9797 3.79692 35.2792 4.73435C36.929 4.57037 38.528 4.1484 40 3.56253C38.8834 5.06246 37.4874 6.39835 35.8884 7.47654Z"
    fill="black"
  ></path>
</svg>
